<svg width="18" height="18" viewBox="0 0 18 18" fill="none" xmlns="http://www.w3.org/2000/svg">
<path fill-rule="evenodd" clip-rule="evenodd" d="M1.98794 2.55568C2.99484 1.49682 3.35069 1.19984 3.77976 1.06163C4.07671 0.983953 4.38812 0.979636 4.68712 1.04906C5.08072 1.16329 5.18484 1.2501 6.47547 2.53398C7.60938 3.66138 7.72265 3.7836 7.83135 4.00405C8.03925 4.39102 8.07175 4.84816 7.9206 5.26052C7.80618 5.57464 7.6437 5.78252 6.95604 6.4713L6.50751 6.92026C6.38977 7.03974 6.36208 7.22112 6.43886 7.3703C7.43546 9.06745 8.84924 10.4828 10.5465 11.4824C10.742 11.5868 10.9826 11.5531 11.1415 11.399L11.5729 10.9752C11.8395 10.7023 12.1219 10.4453 12.4185 10.2054C12.8844 9.91979 13.4648 9.89432 13.954 10.138C14.1931 10.2522 14.2721 10.323 15.4415 11.4881C16.6474 12.6886 16.6818 12.7263 16.8145 13.0016C17.0643 13.4572 17.0616 14.0091 16.8076 14.4625C16.6783 14.7184 16.5994 14.8109 15.9209 15.5031C15.5112 15.9211 15.1257 16.3027 15.0639 16.3586C14.5041 16.8212 13.786 17.0482 13.0615 16.9914C11.7361 16.8708 10.4531 16.4618 9.3028 15.7932C6.75489 14.4455 4.58574 12.482 2.99369 10.082C2.64693 9.57963 2.33865 9.05192 2.07147 8.50341C1.35471 7.27698 0.984587 5.87955 1.00049 4.4598C1.05521 3.71707 1.412 3.02905 1.98794 2.55568Z" stroke="#F0F8FF" stroke-linecap="round" stroke-linejoin="round"/>
</svg>
