<svg width="24" height="24" viewBox="0 0 24 24" fill="none" xmlns="http://www.w3.org/2000/svg">
<g clip-path="url(#clip0_23_37)">
<path d="M12 0.48C5.63758 0.48 0.47998 5.6376 0.47998 12C0.47998 18.3624 5.63758 23.52 12 23.52C18.3624 23.52 23.52 18.3624 23.52 12C23.52 5.6376 18.3624 0.48 12 0.48ZM16.4304 13.4772C16.4304 13.4772 17.4492 14.4828 17.7 14.9496C17.7072 14.9592 17.7108 14.9688 17.7132 14.9736C17.8152 15.1452 17.8392 15.2784 17.7888 15.378C17.7048 15.5436 17.4168 15.6252 17.3184 15.6324H15.5184C15.3936 15.6324 15.132 15.6 14.8152 15.3816C14.5716 15.2112 14.3316 14.9316 14.0976 14.6592C13.7484 14.2536 13.446 13.9032 13.1412 13.9032C13.1025 13.9031 13.064 13.9092 13.0272 13.9212C12.7968 13.9956 12.5016 14.3244 12.5016 15.2004C12.5016 15.474 12.2856 15.6312 12.1332 15.6312H11.3088C11.028 15.6312 9.56518 15.5328 8.26918 14.166C6.68278 12.492 5.25478 9.1344 5.24278 9.1032C5.15278 8.886 5.33878 8.7696 5.54158 8.7696H7.35958C7.60198 8.7696 7.68118 8.9172 7.73638 9.048C7.80118 9.2004 8.03878 9.8064 8.42878 10.488C9.06118 11.5992 9.44878 12.0504 9.75958 12.0504C9.81786 12.0497 9.8751 12.0349 9.92638 12.0072C10.332 11.7816 10.2564 10.3356 10.2384 10.0356C10.2384 9.9792 10.2372 9.3888 10.0296 9.1056C9.88078 8.9004 9.62758 8.8224 9.47398 8.7936C9.53615 8.70781 9.61806 8.63825 9.71278 8.5908C9.99118 8.4516 10.4928 8.4312 10.9908 8.4312H11.268C11.808 8.4384 11.9472 8.4732 12.1428 8.5224C12.5388 8.6172 12.5472 8.8728 12.5124 9.7476C12.5016 9.996 12.4908 10.2768 12.4908 10.608C12.4908 10.68 12.4872 10.7568 12.4872 10.8384C12.4752 11.2836 12.4608 11.7888 12.7752 11.9964C12.8162 12.0221 12.8636 12.0358 12.912 12.036C13.0212 12.036 13.35 12.036 14.2404 10.5084C14.515 10.0167 14.7536 9.50577 14.9544 8.9796C14.9724 8.9484 15.0252 8.8524 15.0876 8.8152C15.1336 8.79172 15.1847 8.77978 15.2364 8.7804H17.3736C17.6064 8.7804 17.766 8.8152 17.796 8.9052C17.8488 9.048 17.7864 9.4836 16.8108 10.8048L16.3752 11.3796C15.4908 12.5388 15.4908 12.5976 16.4304 13.4772Z" fill="#003E75"/>
</g>
<defs>
<clipPath id="clip0_23_37">
<rect width="24" height="24" fill="white"/>
</clipPath>
</defs>
</svg>
